<svg xmlns="http://www.w3.org/2000/svg" width="48" height="48" viewBox="0 0 48 48" shape-rendering="crispEdges">
  <!-- Berry cluster - top left berry -->
  <rect x="12" y="14" width="4" height="4" fill="#4858b8"/>
  <rect x="16" y="14" width="4" height="4" fill="#5868d0"/>
  <rect x="12" y="18" width="4" height="4" fill="#3848a0"/>
  <rect x="16" y="18" width="4" height="4" fill="#4858b8"/>
  <rect x="14" y="12" width="2" height="2" fill="#7888e8"/>
  <!-- Top right berry -->
  <rect x="24" y="12" width="4" height="4" fill="#4858b8"/>
  <rect x="28" y="12" width="4" height="4" fill="#5868d0"/>
  <rect x="24" y="16" width="4" height="4" fill="#3848a0"/>
  <rect x="28" y="16" width="4" height="4" fill="#4858b8"/>
  <rect x="26" y="10" width="2" height="2" fill="#7888e8"/>
  <!-- Middle left berry -->
  <rect x="8" y="22" width="4" height="4" fill="#4858b8"/>
  <rect x="12" y="22" width="4" height="4" fill="#5868d0"/>
  <rect x="8" y="26" width="4" height="4" fill="#3848a0"/>
  <rect x="12" y="26" width="4" height="4" fill="#4858b8"/>
  <rect x="10" y="20" width="2" height="2" fill="#7888e8"/>
  <!-- Middle center berry -->
  <rect x="18" y="20" width="4" height="4" fill="#5868d0"/>
  <rect x="22" y="20" width="4" height="4" fill="#6878e0"/>
  <rect x="18" y="24" width="4" height="4" fill="#4858b8"/>
  <rect x="22" y="24" width="4" height="4" fill="#5868d0"/>
  <rect x="20" y="18" width="2" height="2" fill="#8898f0"/>
  <!-- Middle right berry -->
  <rect x="28" y="22" width="4" height="4" fill="#4858b8"/>
  <rect x="32" y="22" width="4" height="4" fill="#5868d0"/>
  <rect x="28" y="26" width="4" height="4" fill="#3848a0"/>
  <rect x="32" y="26" width="4" height="4" fill="#4858b8"/>
  <rect x="30" y="20" width="2" height="2" fill="#7888e8"/>
  <!-- Bottom left berry -->
  <rect x="14" y="30" width="4" height="4" fill="#4858b8"/>
  <rect x="18" y="30" width="4" height="4" fill="#5868d0"/>
  <rect x="14" y="34" width="4" height="4" fill="#3848a0"/>
  <rect x="18" y="34" width="4" height="4" fill="#4858b8"/>
  <rect x="16" y="28" width="2" height="2" fill="#7888e8"/>
  <!-- Bottom right berry -->
  <rect x="24" y="30" width="4" height="4" fill="#5868d0"/>
  <rect x="28" y="30" width="4" height="4" fill="#4858b8"/>
  <rect x="24" y="34" width="4" height="4" fill="#4858b8"/>
  <rect x="28" y="34" width="4" height="4" fill="#3848a0"/>
  <rect x="26" y="28" width="2" height="2" fill="#7888e8"/>
  <!-- Stem/leaf at top -->
  <rect x="18" y="8" width="4" height="4" fill="#4a7a2e"/>
  <rect x="22" y="8" width="4" height="4" fill="#5d9e3a"/>
  <rect x="20" y="6" width="4" height="4" fill="#5d9e3a"/>
</svg>
