<svg xmlns="http://www.w3.org/2000/svg" width="48" height="48" viewBox="0 0 48 48" shape-rendering="crispEdges">
  <!-- Crown cluster top -->
  <rect x="18" y="4" width="4" height="4" fill="#3d8c28"/>
  <rect x="22" y="4" width="4" height="4" fill="#4a9e32"/>
  <rect x="26" y="4" width="4" height="4" fill="#3d8c28"/>
  <!-- Crown row 2 -->
  <rect x="14" y="8" width="4" height="4" fill="#3d8c28"/>
  <rect x="18" y="8" width="4" height="4" fill="#4a9e32"/>
  <rect x="22" y="8" width="4" height="4" fill="#5bb83e"/>
  <rect x="26" y="8" width="4" height="4" fill="#4a9e32"/>
  <rect x="30" y="8" width="4" height="4" fill="#3d8c28"/>
  <!-- Crown row 3 -->
  <rect x="10" y="12" width="4" height="4" fill="#2e7a20"/>
  <rect x="14" y="12" width="4" height="4" fill="#4a9e32"/>
  <rect x="18" y="12" width="4" height="4" fill="#5bb83e"/>
  <rect x="22" y="12" width="4" height="4" fill="#6dc848"/>
  <rect x="26" y="12" width="4" height="4" fill="#5bb83e"/>
  <rect x="30" y="12" width="4" height="4" fill="#4a9e32"/>
  <rect x="34" y="12" width="4" height="4" fill="#2e7a20"/>
  <!-- Crown row 4 -->
  <rect x="8" y="16" width="4" height="4" fill="#2e7a20"/>
  <rect x="12" y="16" width="4" height="4" fill="#3d8c28"/>
  <rect x="16" y="16" width="4" height="4" fill="#5bb83e"/>
  <rect x="20" y="16" width="4" height="4" fill="#6dc848"/>
  <rect x="24" y="16" width="4" height="4" fill="#5bb83e"/>
  <rect x="28" y="16" width="4" height="4" fill="#4a9e32"/>
  <rect x="32" y="16" width="4" height="4" fill="#3d8c28"/>
  <rect x="36" y="16" width="4" height="4" fill="#2e7a20"/>
  <!-- Crown row 5 -->
  <rect x="10" y="20" width="4" height="4" fill="#2e7a20"/>
  <rect x="14" y="20" width="4" height="4" fill="#3d8c28"/>
  <rect x="18" y="20" width="4" height="4" fill="#4a9e32"/>
  <rect x="22" y="20" width="4" height="4" fill="#5bb83e"/>
  <rect x="26" y="20" width="4" height="4" fill="#4a9e32"/>
  <rect x="30" y="20" width="4" height="4" fill="#3d8c28"/>
  <rect x="34" y="20" width="4" height="4" fill="#2e7a20"/>
  <!-- Crown bottom -->
  <rect x="14" y="24" width="4" height="4" fill="#2e7a20"/>
  <rect x="18" y="24" width="4" height="4" fill="#3d8c28"/>
  <rect x="22" y="24" width="4" height="4" fill="#4a9e32"/>
  <rect x="26" y="24" width="4" height="4" fill="#3d8c28"/>
  <rect x="30" y="24" width="4" height="4" fill="#2e7a20"/>
  <!-- Stem -->
  <rect x="20" y="28" width="4" height="4" fill="#5c8040"/>
  <rect x="24" y="28" width="4" height="4" fill="#4a6e34"/>
  <rect x="20" y="32" width="4" height="4" fill="#4a6e34"/>
  <rect x="24" y="32" width="4" height="4" fill="#3d5c2a"/>
  <!-- Stem base -->
  <rect x="18" y="36" width="4" height="4" fill="#4a6e34"/>
  <rect x="22" y="36" width="4" height="4" fill="#5c8040"/>
  <rect x="26" y="36" width="4" height="4" fill="#4a6e34"/>
  <rect x="20" y="40" width="4" height="4" fill="#3d5c2a"/>
  <rect x="24" y="40" width="4" height="4" fill="#3d5c2a"/>
  <!-- Highlights on crown -->
  <rect x="18" y="8" width="2" height="2" fill="#80d858"/>
  <rect x="22" y="12" width="2" height="2" fill="#88e060"/>
  <rect x="16" y="16" width="2" height="2" fill="#6dc848"/>
</svg>
