<svg xmlns="http://www.w3.org/2000/svg" width="48" height="48" viewBox="0 0 48 48" shape-rendering="crispEdges">
  <!-- Leaves -->
  <rect x="18" y="2" width="4" height="4" fill="#4a7a2e"/>
  <rect x="22" y="2" width="4" height="4" fill="#5d9e3a"/>
  <rect x="26" y="2" width="4" height="4" fill="#4a7a2e"/>
  <rect x="16" y="6" width="4" height="4" fill="#5d9e3a"/>
  <rect x="20" y="6" width="4" height="4" fill="#6db845"/>
  <rect x="24" y="6" width="4" height="4" fill="#6db845"/>
  <rect x="28" y="6" width="4" height="4" fill="#5d9e3a"/>
  <rect x="18" y="10" width="4" height="4" fill="#4a7a2e"/>
  <rect x="22" y="10" width="4" height="4" fill="#5d9e3a"/>
  <rect x="26" y="10" width="4" height="4" fill="#4a7a2e"/>
  <!-- Carrot body top -->
  <rect x="16" y="14" width="4" height="4" fill="#e88520"/>
  <rect x="20" y="14" width="4" height="4" fill="#f5a030"/>
  <rect x="24" y="14" width="4" height="4" fill="#f5a030"/>
  <rect x="28" y="14" width="4" height="4" fill="#e88520"/>
  <!-- Row 2 -->
  <rect x="16" y="18" width="4" height="4" fill="#d87018"/>
  <rect x="20" y="18" width="4" height="4" fill="#f09028"/>
  <rect x="24" y="18" width="4" height="4" fill="#f5a030"/>
  <rect x="28" y="18" width="4" height="4" fill="#e88520"/>
  <!-- Row 3 -->
  <rect x="18" y="22" width="4" height="4" fill="#d87018"/>
  <rect x="22" y="22" width="4" height="4" fill="#f09028"/>
  <rect x="26" y="22" width="4" height="4" fill="#e88520"/>
  <!-- Row 4 -->
  <rect x="18" y="26" width="4" height="4" fill="#c86010"/>
  <rect x="22" y="26" width="4" height="4" fill="#e88520"/>
  <rect x="26" y="26" width="4" height="4" fill="#d87018"/>
  <!-- Row 5 -->
  <rect x="20" y="30" width="4" height="4" fill="#c86010"/>
  <rect x="24" y="30" width="4" height="4" fill="#d87018"/>
  <!-- Row 6 -->
  <rect x="20" y="34" width="4" height="4" fill="#b85010"/>
  <rect x="24" y="34" width="4" height="4" fill="#c86010"/>
  <!-- Tip -->
  <rect x="22" y="38" width="4" height="4" fill="#b85010"/>
  <rect x="22" y="42" width="4" height="4" fill="#a04008"/>
  <!-- Highlight -->
  <rect x="20" y="14" width="2" height="2" fill="#ffc060"/>
  <rect x="20" y="18" width="2" height="2" fill="#ffb050"/>
  <!-- Horizontal lines (texture) -->
  <rect x="18" y="20" width="10" height="1" fill="#c06010" opacity="0.4"/>
  <rect x="20" y="28" width="6" height="1" fill="#a04008" opacity="0.4"/>
  <rect x="20" y="32" width="6" height="1" fill="#a04008" opacity="0.4"/>
</svg>
