<svg xmlns="http://www.w3.org/2000/svg" width="48" height="48" viewBox="0 0 48 48" shape-rendering="crispEdges">
  <!-- Stem -->
  <rect x="22" y="4" width="4" height="4" fill="#4a7a2e"/>
  <!-- Husk left -->
  <rect x="10" y="10" width="4" height="4" fill="#4a7a2e"/>
  <rect x="8" y="14" width="4" height="4" fill="#5d9e3a"/>
  <rect x="8" y="18" width="4" height="4" fill="#6db845"/>
  <rect x="8" y="22" width="4" height="4" fill="#6db845"/>
  <rect x="8" y="26" width="4" height="4" fill="#5d9e3a"/>
  <rect x="10" y="30" width="4" height="4" fill="#4a7a2e"/>
  <rect x="12" y="14" width="4" height="4" fill="#5d9e3a"/>
  <rect x="12" y="18" width="4" height="4" fill="#6db845"/>
  <rect x="12" y="22" width="4" height="4" fill="#5d9e3a"/>
  <rect x="12" y="26" width="4" height="4" fill="#5d9e3a"/>
  <rect x="12" y="30" width="4" height="4" fill="#4a7a2e"/>
  <!-- Husk right -->
  <rect x="34" y="10" width="4" height="4" fill="#4a7a2e"/>
  <rect x="36" y="14" width="4" height="4" fill="#5d9e3a"/>
  <rect x="36" y="18" width="4" height="4" fill="#6db845"/>
  <rect x="36" y="22" width="4" height="4" fill="#6db845"/>
  <rect x="36" y="26" width="4" height="4" fill="#5d9e3a"/>
  <rect x="34" y="30" width="4" height="4" fill="#4a7a2e"/>
  <rect x="32" y="14" width="4" height="4" fill="#5d9e3a"/>
  <rect x="32" y="18" width="4" height="4" fill="#6db845"/>
  <rect x="32" y="22" width="4" height="4" fill="#5d9e3a"/>
  <rect x="32" y="26" width="4" height="4" fill="#5d9e3a"/>
  <rect x="32" y="30" width="4" height="4" fill="#4a7a2e"/>
  <!-- Corn body -->
  <rect x="16" y="8" width="4" height="4" fill="#e8c830"/>
  <rect x="20" y="8" width="4" height="4" fill="#f0d840"/>
  <rect x="24" y="8" width="4" height="4" fill="#f0d840"/>
  <rect x="28" y="8" width="4" height="4" fill="#e8c830"/>
  <!-- Kernels rows -->
  <rect x="16" y="12" width="4" height="4" fill="#f0d840"/>
  <rect x="20" y="12" width="4" height="4" fill="#f8e858"/>
  <rect x="24" y="12" width="4" height="4" fill="#f8e858"/>
  <rect x="28" y="12" width="4" height="4" fill="#f0d840"/>
  <rect x="16" y="16" width="4" height="4" fill="#e8c830"/>
  <rect x="20" y="16" width="4" height="4" fill="#f0d840"/>
  <rect x="24" y="16" width="4" height="4" fill="#f8e858"/>
  <rect x="28" y="16" width="4" height="4" fill="#f0d840"/>
  <rect x="16" y="20" width="4" height="4" fill="#f0d840"/>
  <rect x="20" y="20" width="4" height="4" fill="#f8e858"/>
  <rect x="24" y="20" width="4" height="4" fill="#f0d840"/>
  <rect x="28" y="20" width="4" height="4" fill="#e8c830"/>
  <rect x="16" y="24" width="4" height="4" fill="#e8c830"/>
  <rect x="20" y="24" width="4" height="4" fill="#f0d840"/>
  <rect x="24" y="24" width="4" height="4" fill="#f8e858"/>
  <rect x="28" y="24" width="4" height="4" fill="#f0d840"/>
  <rect x="16" y="28" width="4" height="4" fill="#f0d840"/>
  <rect x="20" y="28" width="4" height="4" fill="#f8e858"/>
  <rect x="24" y="28" width="4" height="4" fill="#f0d840"/>
  <rect x="28" y="28" width="4" height="4" fill="#e8c830"/>
  <rect x="16" y="32" width="4" height="4" fill="#e8c830"/>
  <rect x="20" y="32" width="4" height="4" fill="#f0d840"/>
  <rect x="24" y="32" width="4" height="4" fill="#f0d840"/>
  <rect x="28" y="32" width="4" height="4" fill="#e8c830"/>
  <!-- Bottom -->
  <rect x="18" y="36" width="4" height="4" fill="#d8b828"/>
  <rect x="22" y="36" width="4" height="4" fill="#e8c830"/>
  <rect x="26" y="36" width="4" height="4" fill="#d8b828"/>
  <rect x="20" y="40" width="4" height="4" fill="#c8a820"/>
  <rect x="24" y="40" width="4" height="4" fill="#c8a820"/>
  <!-- Highlight -->
  <rect x="20" y="12" width="2" height="2" fill="#fff8a0"/>
  <rect x="24" y="16" width="2" height="2" fill="#fff8a0"/>
</svg>
