<svg xmlns="http://www.w3.org/2000/svg" width="48" height="48" viewBox="0 0 48 48" shape-rendering="crispEdges">
  <!-- Egg body - top -->
  <rect x="18" y="8" width="4" height="4" fill="#fff8e8"/>
  <rect x="22" y="8" width="4" height="4" fill="#fff8e8"/>
  <rect x="26" y="8" width="4" height="4" fill="#f0e8d8"/>
  <!-- Row 2 -->
  <rect x="14" y="12" width="4" height="4" fill="#fff8e8"/>
  <rect x="18" y="12" width="4" height="4" fill="#fffff0"/>
  <rect x="22" y="12" width="4" height="4" fill="#fffff0"/>
  <rect x="26" y="12" width="4" height="4" fill="#fff8e8"/>
  <rect x="30" y="12" width="4" height="4" fill="#f0e8d8"/>
  <!-- Row 3 -->
  <rect x="12" y="16" width="4" height="4" fill="#f0e8d8"/>
  <rect x="16" y="16" width="4" height="4" fill="#fff8e8"/>
  <rect x="20" y="16" width="4" height="4" fill="#fffff0"/>
  <rect x="24" y="16" width="4" height="4" fill="#fffff0"/>
  <rect x="28" y="16" width="4" height="4" fill="#fff8e8"/>
  <rect x="32" y="16" width="4" height="4" fill="#f0e8d8"/>
  <!-- Row 4 -->
  <rect x="10" y="20" width="4" height="4" fill="#e8e0d0"/>
  <rect x="14" y="20" width="4" height="4" fill="#fff8e8"/>
  <rect x="18" y="20" width="4" height="4" fill="#fffff0"/>
  <rect x="22" y="20" width="4" height="4" fill="#fffff0"/>
  <rect x="26" y="20" width="4" height="4" fill="#fff8e8"/>
  <rect x="30" y="20" width="4" height="4" fill="#f0e8d8"/>
  <rect x="34" y="20" width="4" height="4" fill="#e8e0d0"/>
  <!-- Row 5 -->
  <rect x="10" y="24" width="4" height="4" fill="#e0d8c8"/>
  <rect x="14" y="24" width="4" height="4" fill="#f0e8d8"/>
  <rect x="18" y="24" width="4" height="4" fill="#fff8e8"/>
  <rect x="22" y="24" width="4" height="4" fill="#fff8e8"/>
  <rect x="26" y="24" width="4" height="4" fill="#f0e8d8"/>
  <rect x="30" y="24" width="4" height="4" fill="#e8e0d0"/>
  <rect x="34" y="24" width="4" height="4" fill="#e0d8c8"/>
  <!-- Row 6 -->
  <rect x="12" y="28" width="4" height="4" fill="#e0d8c8"/>
  <rect x="16" y="28" width="4" height="4" fill="#f0e8d8"/>
  <rect x="20" y="28" width="4" height="4" fill="#fff8e8"/>
  <rect x="24" y="28" width="4" height="4" fill="#f0e8d8"/>
  <rect x="28" y="28" width="4" height="4" fill="#e8e0d0"/>
  <rect x="32" y="28" width="4" height="4" fill="#e0d8c8"/>
  <!-- Row 7 -->
  <rect x="14" y="32" width="4" height="4" fill="#d8d0c0"/>
  <rect x="18" y="32" width="4" height="4" fill="#e8e0d0"/>
  <rect x="22" y="32" width="4" height="4" fill="#f0e8d8"/>
  <rect x="26" y="32" width="4" height="4" fill="#e8e0d0"/>
  <rect x="30" y="32" width="4" height="4" fill="#d8d0c0"/>
  <!-- Bottom -->
  <rect x="18" y="36" width="4" height="4" fill="#d8d0c0"/>
  <rect x="22" y="36" width="4" height="4" fill="#e0d8c8"/>
  <rect x="26" y="36" width="4" height="4" fill="#d8d0c0"/>
  <!-- Nutri-A badge (green circle with A) -->
  <rect x="30" y="6" width="4" height="4" fill="#3d8c28"/>
  <rect x="34" y="6" width="4" height="4" fill="#3d8c28"/>
  <rect x="28" y="10" width="4" height="4" fill="#3d8c28"/>
  <rect x="32" y="10" width="4" height="4" fill="#4a9e32"/>
  <rect x="36" y="10" width="4" height="4" fill="#3d8c28"/>
  <rect x="28" y="14" width="4" height="4" fill="#3d8c28"/>
  <rect x="32" y="14" width="4" height="4" fill="#4a9e32"/>
  <rect x="36" y="14" width="4" height="4" fill="#3d8c28"/>
  <rect x="30" y="18" width="4" height="4" fill="#3d8c28"/>
  <rect x="34" y="18" width="4" height="4" fill="#3d8c28"/>
  <!-- A letter in badge -->
  <rect x="32" y="8" width="2" height="2" fill="#ffffff"/>
  <rect x="34" y="8" width="2" height="2" fill="#ffffff"/>
  <rect x="31" y="10" width="2" height="2" fill="#ffffff"/>
  <rect x="35" y="10" width="2" height="2" fill="#ffffff"/>
  <rect x="31" y="12" width="6" height="2" fill="#ffffff"/>
  <rect x="31" y="14" width="2" height="2" fill="#ffffff"/>
  <rect x="35" y="14" width="2" height="2" fill="#ffffff"/>
  <!-- Highlight on egg -->
  <rect x="16" y="14" width="2" height="2" fill="#ffffff"/>
  <rect x="18" y="12" width="2" height="2" fill="#ffffff"/>
</svg>
