<svg xmlns="http://www.w3.org/2000/svg" width="48" height="48" viewBox="0 0 48 48" shape-rendering="crispEdges">
  <!-- Stem -->
  <rect x="20" y="4" width="4" height="4" fill="#4a7a2e"/>
  <rect x="22" y="8" width="4" height="4" fill="#5d9e3a"/>
  <!-- Top -->
  <rect x="16" y="12" width="4" height="4" fill="#d42e3e"/>
  <rect x="20" y="12" width="4" height="4" fill="#e8384a"/>
  <rect x="24" y="12" width="4" height="4" fill="#e8384a"/>
  <rect x="28" y="12" width="4" height="4" fill="#d42e3e"/>
  <!-- Row 2 -->
  <rect x="12" y="16" width="4" height="4" fill="#c4263a"/>
  <rect x="16" y="16" width="4" height="4" fill="#e8384a"/>
  <rect x="20" y="16" width="4" height="4" fill="#f56b79"/>
  <rect x="24" y="16" width="4" height="4" fill="#f25868"/>
  <rect x="28" y="16" width="4" height="4" fill="#e8384a"/>
  <rect x="32" y="16" width="4" height="4" fill="#c4263a"/>
  <!-- Row 3 -->
  <rect x="10" y="20" width="4" height="4" fill="#b82234"/>
  <rect x="14" y="20" width="4" height="4" fill="#d42e3e"/>
  <rect x="18" y="20" width="4" height="4" fill="#f04e5e"/>
  <rect x="22" y="20" width="4" height="4" fill="#f56b79"/>
  <rect x="26" y="20" width="4" height="4" fill="#f04e5e"/>
  <rect x="30" y="20" width="4" height="4" fill="#d42e3e"/>
  <rect x="34" y="20" width="4" height="4" fill="#b82234"/>
  <!-- Row 4 -->
  <rect x="10" y="24" width="4" height="4" fill="#a01e2e"/>
  <rect x="14" y="24" width="4" height="4" fill="#c4263a"/>
  <rect x="18" y="24" width="4" height="4" fill="#e8384a"/>
  <rect x="22" y="24" width="4" height="4" fill="#f04e5e"/>
  <rect x="26" y="24" width="4" height="4" fill="#e8384a"/>
  <rect x="30" y="24" width="4" height="4" fill="#c4263a"/>
  <rect x="34" y="24" width="4" height="4" fill="#a01e2e"/>
  <!-- Row 5 -->
  <rect x="10" y="28" width="4" height="4" fill="#8c1a28"/>
  <rect x="14" y="28" width="4" height="4" fill="#b82234"/>
  <rect x="18" y="28" width="4" height="4" fill="#d42e3e"/>
  <rect x="22" y="28" width="4" height="4" fill="#e8384a"/>
  <rect x="26" y="28" width="4" height="4" fill="#d42e3e"/>
  <rect x="30" y="28" width="4" height="4" fill="#b82234"/>
  <rect x="34" y="28" width="4" height="4" fill="#8c1a28"/>
  <!-- Lobes bottom -->
  <rect x="10" y="32" width="4" height="4" fill="#8c1a28"/>
  <rect x="14" y="32" width="4" height="4" fill="#a01e2e"/>
  <rect x="18" y="32" width="4" height="4" fill="#c4263a"/>
  <rect x="22" y="32" width="4" height="4" fill="#d42e3e"/>
  <rect x="26" y="32" width="4" height="4" fill="#c4263a"/>
  <rect x="30" y="32" width="4" height="4" fill="#a01e2e"/>
  <rect x="34" y="32" width="4" height="4" fill="#8c1a28"/>
  <!-- Bottom lobes -->
  <rect x="10" y="36" width="4" height="4" fill="#7a1420"/>
  <rect x="14" y="36" width="4" height="4" fill="#8c1a28"/>
  <rect x="18" y="36" width="4" height="4" fill="#a01e2e"/>
  <rect x="22" y="36" width="4" height="4" fill="#b82234"/>
  <rect x="26" y="36" width="4" height="4" fill="#a01e2e"/>
  <rect x="30" y="36" width="4" height="4" fill="#8c1a28"/>
  <rect x="34" y="36" width="4" height="4" fill="#7a1420"/>
  <!-- Lobe tips -->
  <rect x="12" y="40" width="4" height="4" fill="#7a1420"/>
  <rect x="18" y="40" width="4" height="4" fill="#8c1a28"/>
  <rect x="26" y="40" width="4" height="4" fill="#8c1a28"/>
  <rect x="32" y="40" width="4" height="4" fill="#7a1420"/>
  <!-- Highlight -->
  <rect x="16" y="16" width="2" height="2" fill="#ff9eaa"/>
  <rect x="18" y="18" width="2" height="2" fill="#ffb8c2"/>
  <!-- Vertical lobe lines -->
  <rect x="16" y="20" width="2" height="20" fill="#a01e2e" opacity="0.3"/>
  <rect x="28" y="20" width="2" height="20" fill="#a01e2e" opacity="0.3"/>
</svg>
