<svg xmlns="http://www.w3.org/2000/svg" width="48" height="48" viewBox="0 0 48 48" shape-rendering="crispEdges">
  <!-- Main body -->
  <rect x="14" y="14" width="4" height="4" fill="#c49850"/>
  <rect x="18" y="14" width="4" height="4" fill="#d4a860"/>
  <rect x="22" y="14" width="4" height="4" fill="#d4a860"/>
  <rect x="26" y="14" width="4" height="4" fill="#c49850"/>
  <!-- Row 2 -->
  <rect x="10" y="18" width="4" height="4" fill="#b08040"/>
  <rect x="14" y="18" width="4" height="4" fill="#c49850"/>
  <rect x="18" y="18" width="4" height="4" fill="#d4a860"/>
  <rect x="22" y="18" width="4" height="4" fill="#e0b870"/>
  <rect x="26" y="18" width="4" height="4" fill="#d4a860"/>
  <rect x="30" y="18" width="4" height="4" fill="#c49850"/>
  <rect x="34" y="18" width="4" height="4" fill="#b08040"/>
  <!-- Row 3 -->
  <rect x="8" y="22" width="4" height="4" fill="#a07038"/>
  <rect x="12" y="22" width="4" height="4" fill="#b88c48"/>
  <rect x="16" y="22" width="4" height="4" fill="#d4a860"/>
  <rect x="20" y="22" width="4" height="4" fill="#e0b870"/>
  <rect x="24" y="22" width="4" height="4" fill="#d4a860"/>
  <rect x="28" y="22" width="4" height="4" fill="#c49850"/>
  <rect x="32" y="22" width="4" height="4" fill="#b88c48"/>
  <rect x="36" y="22" width="4" height="4" fill="#a07038"/>
  <!-- Row 4 (widest) -->
  <rect x="8" y="26" width="4" height="4" fill="#906830"/>
  <rect x="12" y="26" width="4" height="4" fill="#b08040"/>
  <rect x="16" y="26" width="4" height="4" fill="#c49850"/>
  <rect x="20" y="26" width="4" height="4" fill="#d4a860"/>
  <rect x="24" y="26" width="4" height="4" fill="#c49850"/>
  <rect x="28" y="26" width="4" height="4" fill="#b88c48"/>
  <rect x="32" y="26" width="4" height="4" fill="#a07038"/>
  <rect x="36" y="26" width="4" height="4" fill="#906830"/>
  <!-- Row 5 -->
  <rect x="10" y="30" width="4" height="4" fill="#906830"/>
  <rect x="14" y="30" width="4" height="4" fill="#a07038"/>
  <rect x="18" y="30" width="4" height="4" fill="#b88c48"/>
  <rect x="22" y="30" width="4" height="4" fill="#c49850"/>
  <rect x="26" y="30" width="4" height="4" fill="#b08040"/>
  <rect x="30" y="30" width="4" height="4" fill="#a07038"/>
  <rect x="34" y="30" width="4" height="4" fill="#906830"/>
  <!-- Row 6 -->
  <rect x="14" y="34" width="4" height="4" fill="#906830"/>
  <rect x="18" y="34" width="4" height="4" fill="#a07038"/>
  <rect x="22" y="34" width="4" height="4" fill="#b08040"/>
  <rect x="26" y="34" width="4" height="4" fill="#a07038"/>
  <rect x="30" y="34" width="4" height="4" fill="#906830"/>
  <!-- Spots/eyes -->
  <rect x="16" y="22" width="2" height="2" fill="#8c6030"/>
  <rect x="28" y="26" width="2" height="2" fill="#8c6030"/>
  <rect x="20" y="30" width="2" height="2" fill="#8c6030"/>
  <!-- Highlight -->
  <rect x="18" y="16" width="2" height="2" fill="#ecc880"/>
  <rect x="22" y="18" width="2" height="2" fill="#f0d090"/>
</svg>
