<svg xmlns="http://www.w3.org/2000/svg" width="48" height="48" viewBox="0 0 48 48" shape-rendering="crispEdges">
  <!-- Stem -->
  <rect x="22" y="4" width="4" height="4" fill="#4a7a2e"/>
  <rect x="20" y="6" width="4" height="4" fill="#5d9e3a"/>
  <!-- Top -->
  <rect x="16" y="10" width="4" height="4" fill="#d87018"/>
  <rect x="20" y="10" width="4" height="4" fill="#e88520"/>
  <rect x="24" y="10" width="4" height="4" fill="#e88520"/>
  <rect x="28" y="10" width="4" height="4" fill="#d87018"/>
  <!-- Row 2 -->
  <rect x="12" y="14" width="4" height="4" fill="#c86010"/>
  <rect x="16" y="14" width="4" height="4" fill="#e88520"/>
  <rect x="20" y="14" width="4" height="4" fill="#f5a030"/>
  <rect x="24" y="14" width="4" height="4" fill="#f5a030"/>
  <rect x="28" y="14" width="4" height="4" fill="#e88520"/>
  <rect x="32" y="14" width="4" height="4" fill="#c86010"/>
  <!-- Row 3 -->
  <rect x="8" y="18" width="4" height="4" fill="#b85010"/>
  <rect x="12" y="18" width="4" height="4" fill="#d87018"/>
  <rect x="16" y="18" width="4" height="4" fill="#f09028"/>
  <rect x="20" y="18" width="4" height="4" fill="#f5a030"/>
  <rect x="24" y="18" width="4" height="4" fill="#f5a030"/>
  <rect x="28" y="18" width="4" height="4" fill="#e88520"/>
  <rect x="32" y="18" width="4" height="4" fill="#d87018"/>
  <rect x="36" y="18" width="4" height="4" fill="#b85010"/>
  <!-- Row 4 (widest) -->
  <rect x="6" y="22" width="4" height="4" fill="#a04008"/>
  <rect x="10" y="22" width="4" height="4" fill="#c86010"/>
  <rect x="14" y="22" width="4" height="4" fill="#e88520"/>
  <rect x="18" y="22" width="4" height="4" fill="#f5a030"/>
  <rect x="22" y="22" width="4" height="4" fill="#f5a030"/>
  <rect x="26" y="22" width="4" height="4" fill="#e88520"/>
  <rect x="30" y="22" width="4" height="4" fill="#d87018"/>
  <rect x="34" y="22" width="4" height="4" fill="#c86010"/>
  <rect x="38" y="22" width="4" height="4" fill="#a04008"/>
  <!-- Row 5 -->
  <rect x="6" y="26" width="4" height="4" fill="#903808"/>
  <rect x="10" y="26" width="4" height="4" fill="#b85010"/>
  <rect x="14" y="26" width="4" height="4" fill="#d87018"/>
  <rect x="18" y="26" width="4" height="4" fill="#e88520"/>
  <rect x="22" y="26" width="4" height="4" fill="#f09028"/>
  <rect x="26" y="26" width="4" height="4" fill="#e88520"/>
  <rect x="30" y="26" width="4" height="4" fill="#c86010"/>
  <rect x="34" y="26" width="4" height="4" fill="#b85010"/>
  <rect x="38" y="26" width="4" height="4" fill="#903808"/>
  <!-- Row 6 -->
  <rect x="8" y="30" width="4" height="4" fill="#903808"/>
  <rect x="12" y="30" width="4" height="4" fill="#b85010"/>
  <rect x="16" y="30" width="4" height="4" fill="#d87018"/>
  <rect x="20" y="30" width="4" height="4" fill="#e88520"/>
  <rect x="24" y="30" width="4" height="4" fill="#d87018"/>
  <rect x="28" y="30" width="4" height="4" fill="#c86010"/>
  <rect x="32" y="30" width="4" height="4" fill="#a04008"/>
  <rect x="36" y="30" width="4" height="4" fill="#903808"/>
  <!-- Row 7 -->
  <rect x="12" y="34" width="4" height="4" fill="#903808"/>
  <rect x="16" y="34" width="4" height="4" fill="#b85010"/>
  <rect x="20" y="34" width="4" height="4" fill="#d87018"/>
  <rect x="24" y="34" width="4" height="4" fill="#c86010"/>
  <rect x="28" y="34" width="4" height="4" fill="#a04008"/>
  <rect x="32" y="34" width="4" height="4" fill="#903808"/>
  <!-- Bottom -->
  <rect x="16" y="38" width="4" height="4" fill="#903808"/>
  <rect x="20" y="38" width="4" height="4" fill="#a04008"/>
  <rect x="24" y="38" width="4" height="4" fill="#a04008"/>
  <rect x="28" y="38" width="4" height="4" fill="#903808"/>
  <!-- Ribs (vertical segment lines) -->
  <rect x="14" y="14" width="2" height="24" fill="#a04008" opacity="0.4"/>
  <rect x="22" y="12" width="2" height="26" fill="#a04008" opacity="0.4"/>
  <rect x="30" y="14" width="2" height="24" fill="#a04008" opacity="0.4"/>
  <!-- Highlight -->
  <rect x="18" y="14" width="2" height="2" fill="#ffb848"/>
  <rect x="20" y="18" width="2" height="2" fill="#ffc858"/>
</svg>
