<svg xmlns="http://www.w3.org/2000/svg" width="48" height="48" viewBox="0 0 48 48" shape-rendering="crispEdges">
  <!-- Stem and leaves -->
  <rect x="22" y="4" width="4" height="4" fill="#4a7a2e"/>
  <rect x="18" y="6" width="4" height="4" fill="#5d9e3a"/>
  <rect x="26" y="6" width="4" height="4" fill="#5d9e3a"/>
  <rect x="14" y="8" width="4" height="4" fill="#4a7a2e"/>
  <rect x="18" y="8" width="4" height="4" fill="#6db845"/>
  <rect x="22" y="8" width="4" height="4" fill="#5d9e3a"/>
  <rect x="26" y="8" width="4" height="4" fill="#6db845"/>
  <rect x="30" y="8" width="4" height="4" fill="#4a7a2e"/>
  <rect x="16" y="10" width="4" height="4" fill="#5d9e3a"/>
  <rect x="28" y="10" width="4" height="4" fill="#5d9e3a"/>
  <!-- Main body -->
  <rect x="16" y="12" width="4" height="4" fill="#e8384a"/>
  <rect x="20" y="12" width="4" height="4" fill="#f04e5e"/>
  <rect x="24" y="12" width="4" height="4" fill="#f04e5e"/>
  <rect x="28" y="12" width="4" height="4" fill="#d42e3e"/>
  <rect x="14" y="16" width="4" height="4" fill="#e8384a"/>
  <rect x="18" y="16" width="4" height="4" fill="#f25868"/>
  <rect x="22" y="16" width="4" height="4" fill="#f56b79"/>
  <rect x="26" y="16" width="4" height="4" fill="#f04e5e"/>
  <rect x="30" y="16" width="4" height="4" fill="#d42e3e"/>
  <rect x="12" y="20" width="4" height="4" fill="#d42e3e"/>
  <rect x="16" y="20" width="4" height="4" fill="#f04e5e"/>
  <rect x="20" y="20" width="4" height="4" fill="#f56b79"/>
  <rect x="24" y="20" width="4" height="4" fill="#f25868"/>
  <rect x="28" y="20" width="4" height="4" fill="#e8384a"/>
  <rect x="32" y="20" width="4" height="4" fill="#c4263a"/>
  <!-- Seeds (yellow dots) -->
  <rect x="18" y="18" width="2" height="2" fill="#ffe566"/>
  <rect x="26" y="14" width="2" height="2" fill="#ffe566"/>
  <rect x="14" y="22" width="2" height="2" fill="#ffe566"/>
  <rect x="22" y="22" width="2" height="2" fill="#ffe566"/>
  <rect x="30" y="22" width="2" height="2" fill="#ffe566"/>
  <!-- Lower body -->
  <rect x="12" y="24" width="4" height="4" fill="#d42e3e"/>
  <rect x="16" y="24" width="4" height="4" fill="#e8384a"/>
  <rect x="20" y="24" width="4" height="4" fill="#f04e5e"/>
  <rect x="24" y="24" width="4" height="4" fill="#e8384a"/>
  <rect x="28" y="24" width="4" height="4" fill="#d42e3e"/>
  <rect x="32" y="24" width="4" height="4" fill="#b82234"/>
  <rect x="14" y="28" width="4" height="4" fill="#c4263a"/>
  <rect x="18" y="28" width="4" height="4" fill="#e8384a"/>
  <rect x="22" y="28" width="4" height="4" fill="#f04e5e"/>
  <rect x="26" y="28" width="4" height="4" fill="#d42e3e"/>
  <rect x="30" y="28" width="4" height="4" fill="#b82234"/>
  <!-- Seeds lower -->
  <rect x="16" y="26" width="2" height="2" fill="#ffe566"/>
  <rect x="24" y="26" width="2" height="2" fill="#ffe566"/>
  <rect x="20" y="30" width="2" height="2" fill="#ffe566"/>
  <rect x="28" y="30" width="2" height="2" fill="#ffe566"/>
  <!-- Bottom tip -->
  <rect x="16" y="32" width="4" height="4" fill="#b82234"/>
  <rect x="20" y="32" width="4" height="4" fill="#d42e3e"/>
  <rect x="24" y="32" width="4" height="4" fill="#c4263a"/>
  <rect x="28" y="32" width="4" height="4" fill="#a01e2e"/>
  <rect x="18" y="36" width="4" height="4" fill="#b82234"/>
  <rect x="22" y="36" width="4" height="4" fill="#c4263a"/>
  <rect x="26" y="36" width="4" height="4" fill="#a01e2e"/>
  <rect x="20" y="40" width="4" height="4" fill="#a01e2e"/>
  <rect x="24" y="40" width="4" height="4" fill="#8c1a28"/>
  <rect x="22" y="44" width="4" height="4" fill="#8c1a28"/>
  <!-- Highlight -->
  <rect x="20" y="14" width="2" height="2" fill="#ff9eaa"/>
  <rect x="22" y="16" width="2" height="2" fill="#ffb8c2"/>
</svg>
