<svg xmlns="http://www.w3.org/2000/svg" width="48" height="48" viewBox="0 0 48 48" shape-rendering="crispEdges">
  <!-- Stem/calyx -->
  <rect x="22" y="4" width="4" height="4" fill="#4a7a2e"/>
  <rect x="16" y="8" width="4" height="4" fill="#5d9e3a"/>
  <rect x="20" y="8" width="4" height="4" fill="#6db845"/>
  <rect x="24" y="8" width="4" height="4" fill="#6db845"/>
  <rect x="28" y="8" width="4" height="4" fill="#5d9e3a"/>
  <rect x="14" y="10" width="4" height="4" fill="#4a7a2e"/>
  <rect x="30" y="10" width="4" height="4" fill="#4a7a2e"/>
  <!-- Top row -->
  <rect x="14" y="12" width="4" height="4" fill="#e03030"/>
  <rect x="18" y="12" width="4" height="4" fill="#f04040"/>
  <rect x="22" y="12" width="4" height="4" fill="#f55050"/>
  <rect x="26" y="12" width="4" height="4" fill="#f04040"/>
  <rect x="30" y="12" width="4" height="4" fill="#d82828"/>
  <!-- Row 2 -->
  <rect x="10" y="16" width="4" height="4" fill="#cc2222"/>
  <rect x="14" y="16" width="4" height="4" fill="#e83838"/>
  <rect x="18" y="16" width="4" height="4" fill="#f55050"/>
  <rect x="22" y="16" width="4" height="4" fill="#f86868"/>
  <rect x="26" y="16" width="4" height="4" fill="#f55050"/>
  <rect x="30" y="16" width="4" height="4" fill="#e03030"/>
  <rect x="34" y="16" width="4" height="4" fill="#cc2222"/>
  <!-- Row 3 -->
  <rect x="8" y="20" width="4" height="4" fill="#b81c1c"/>
  <rect x="12" y="20" width="4" height="4" fill="#d82828"/>
  <rect x="16" y="20" width="4" height="4" fill="#f04040"/>
  <rect x="20" y="20" width="4" height="4" fill="#f86868"/>
  <rect x="24" y="20" width="4" height="4" fill="#f55050"/>
  <rect x="28" y="20" width="4" height="4" fill="#e83838"/>
  <rect x="32" y="20" width="4" height="4" fill="#d82828"/>
  <rect x="36" y="20" width="4" height="4" fill="#b81c1c"/>
  <!-- Row 4 (widest) -->
  <rect x="8" y="24" width="4" height="4" fill="#a01818"/>
  <rect x="12" y="24" width="4" height="4" fill="#cc2222"/>
  <rect x="16" y="24" width="4" height="4" fill="#e83838"/>
  <rect x="20" y="24" width="4" height="4" fill="#f04040"/>
  <rect x="24" y="24" width="4" height="4" fill="#e83838"/>
  <rect x="28" y="24" width="4" height="4" fill="#d82828"/>
  <rect x="32" y="24" width="4" height="4" fill="#cc2222"/>
  <rect x="36" y="24" width="4" height="4" fill="#a01818"/>
  <!-- Row 5 -->
  <rect x="10" y="28" width="4" height="4" fill="#a01818"/>
  <rect x="14" y="28" width="4" height="4" fill="#cc2222"/>
  <rect x="18" y="28" width="4" height="4" fill="#e03030"/>
  <rect x="22" y="28" width="4" height="4" fill="#e83838"/>
  <rect x="26" y="28" width="4" height="4" fill="#d82828"/>
  <rect x="30" y="28" width="4" height="4" fill="#b81c1c"/>
  <rect x="34" y="28" width="4" height="4" fill="#a01818"/>
  <!-- Row 6 -->
  <rect x="12" y="32" width="4" height="4" fill="#8c1414"/>
  <rect x="16" y="32" width="4" height="4" fill="#b81c1c"/>
  <rect x="20" y="32" width="4" height="4" fill="#d82828"/>
  <rect x="24" y="32" width="4" height="4" fill="#cc2222"/>
  <rect x="28" y="32" width="4" height="4" fill="#b81c1c"/>
  <rect x="32" y="32" width="4" height="4" fill="#8c1414"/>
  <!-- Bottom -->
  <rect x="16" y="36" width="4" height="4" fill="#8c1414"/>
  <rect x="20" y="36" width="4" height="4" fill="#a01818"/>
  <rect x="24" y="36" width="4" height="4" fill="#a01818"/>
  <rect x="28" y="36" width="4" height="4" fill="#8c1414"/>
  <!-- Highlight -->
  <rect x="14" y="16" width="2" height="2" fill="#ff8888"/>
  <rect x="16" y="18" width="2" height="2" fill="#ffaaaa"/>
  <!-- Segment lines -->
  <rect x="22" y="16" width="2" height="20" fill="#d02020" opacity="0.3"/>
</svg>
