<svg xmlns="http://www.w3.org/2000/svg" width="176" height="96" viewBox="0 0 176 96" shape-rendering="crispEdges">
  <!-- Cart basket frame - back panel (reddened/damaged) -->
  <rect x="20" y="16" width="4" height="4" fill="#8c1414"/>
  <rect x="24" y="16" width="4" height="4" fill="#a01818"/>
  <rect x="28" y="16" width="80" height="4" fill="#8c1414"/>
  <rect x="108" y="16" width="4" height="4" fill="#a01818"/>
  <rect x="112" y="16" width="4" height="4" fill="#8c1414"/>
  <!-- REWE red side panel (darker/damaged) -->
  <rect x="16" y="20" width="4" height="4" fill="#701010"/>
  <rect x="20" y="20" width="4" height="4" fill="#8c1414"/>
  <rect x="24" y="20" width="88" height="4" fill="#a01818"/>
  <rect x="112" y="20" width="4" height="4" fill="#8c1414"/>
  <rect x="116" y="20" width="4" height="4" fill="#701010"/>
  <!-- Damaged text area (faded) -->
  <rect x="40" y="22" width="4" height="4" fill="#e0b0b0"/>
  <rect x="48" y="22" width="4" height="4" fill="#e0b0b0"/>
  <rect x="56" y="22" width="4" height="4" fill="#e0b0b0"/>
  <rect x="64" y="22" width="4" height="4" fill="#e0b0b0"/>
  <rect x="72" y="22" width="4" height="4" fill="#e0b0b0"/>
  <rect x="80" y="22" width="4" height="4" fill="#e0b0b0"/>
  <rect x="88" y="22" width="4" height="4" fill="#e0b0b0"/>
  <!-- Cart basket body (reddish tint) -->
  <rect x="14" y="24" width="4" height="4" fill="#988088"/>
  <rect x="18" y="24" width="4" height="4" fill="#b89098"/>
  <rect x="22" y="24" width="4" height="4" fill="#d0a0a8"/>
  <rect x="26" y="24" width="80" height="4" fill="#d8a8b0"/>
  <rect x="106" y="24" width="4" height="4" fill="#c098a0"/>
  <rect x="110" y="24" width="4" height="4" fill="#b08890"/>
  <rect x="114" y="24" width="4" height="4" fill="#988088"/>
  <!-- Basket mesh rows (reddish) -->
  <rect x="14" y="28" width="4" height="4" fill="#907880"/>
  <rect x="18" y="28" width="4" height="4" fill="#a88890"/>
  <rect x="22" y="28" width="88" height="4" fill="#c8a0a8"/>
  <rect x="110" y="28" width="4" height="4" fill="#a08088"/>
  <rect x="114" y="28" width="4" height="4" fill="#907880"/>
  <!-- Wire mesh pattern -->
  <rect x="26" y="28" width="2" height="4" fill="#907078"/>
  <rect x="38" y="28" width="2" height="4" fill="#907078"/>
  <rect x="50" y="28" width="2" height="4" fill="#907078"/>
  <rect x="62" y="28" width="2" height="4" fill="#907078"/>
  <rect x="74" y="28" width="2" height="4" fill="#907078"/>
  <rect x="86" y="28" width="2" height="4" fill="#907078"/>
  <rect x="98" y="28" width="2" height="4" fill="#907078"/>
  <!-- Basket row 3 -->
  <rect x="14" y="32" width="4" height="4" fill="#887078"/>
  <rect x="18" y="32" width="4" height="4" fill="#a08088"/>
  <rect x="22" y="32" width="88" height="4" fill="#c098a0"/>
  <rect x="110" y="32" width="4" height="4" fill="#987880"/>
  <rect x="114" y="32" width="4" height="4" fill="#887078"/>
  <!-- Horizontal wire -->
  <rect x="22" y="34" width="88" height="2" fill="#907078"/>
  <!-- Basket row 4 -->
  <rect x="14" y="36" width="4" height="4" fill="#806870"/>
  <rect x="18" y="36" width="4" height="4" fill="#987880"/>
  <rect x="22" y="36" width="88" height="4" fill="#b89098"/>
  <rect x="110" y="36" width="4" height="4" fill="#907078"/>
  <rect x="114" y="36" width="4" height="4" fill="#806870"/>
  <!-- Wire mesh pattern row 2 -->
  <rect x="32" y="36" width="2" height="4" fill="#806068"/>
  <rect x="44" y="36" width="2" height="4" fill="#806068"/>
  <rect x="56" y="36" width="2" height="4" fill="#806068"/>
  <rect x="68" y="36" width="2" height="4" fill="#806068"/>
  <rect x="80" y="36" width="2" height="4" fill="#806068"/>
  <rect x="92" y="36" width="2" height="4" fill="#806068"/>
  <rect x="104" y="36" width="2" height="4" fill="#806068"/>
  <!-- Basket row 5 -->
  <rect x="16" y="40" width="4" height="4" fill="#786068"/>
  <rect x="20" y="40" width="4" height="4" fill="#907078"/>
  <rect x="24" y="40" width="84" height="4" fill="#b08890"/>
  <rect x="108" y="40" width="4" height="4" fill="#887078"/>
  <rect x="112" y="40" width="4" height="4" fill="#786068"/>
  <!-- Basket bottom -->
  <rect x="18" y="44" width="4" height="4" fill="#685860"/>
  <rect x="22" y="44" width="4" height="4" fill="#806870"/>
  <rect x="26" y="44" width="80" height="4" fill="#a08088"/>
  <rect x="106" y="44" width="4" height="4" fill="#786068"/>
  <rect x="110" y="44" width="4" height="4" fill="#685860"/>
  <!-- Bottom frame -->
  <rect x="20" y="48" width="92" height="4" fill="#585058"/>
  <!-- Handle bar -->
  <rect x="118" y="14" width="4" height="4" fill="#484048"/>
  <rect x="122" y="14" width="24" height="4" fill="#585058"/>
  <rect x="146" y="14" width="4" height="4" fill="#484048"/>
  <!-- Handle grip -->
  <rect x="126" y="10" width="16" height="4" fill="#383038"/>
  <rect x="128" y="8" width="12" height="4" fill="#282028"/>
  <!-- Handle vertical post -->
  <rect x="140" y="18" width="4" height="32" fill="#484048"/>
  <rect x="144" y="18" width="4" height="32" fill="#585058"/>
  <rect x="148" y="22" width="2" height="28" fill="#383038"/>
  <!-- Front support bar -->
  <rect x="140" y="50" width="8" height="4" fill="#484048"/>
  <!-- Axle bar -->
  <rect x="16" y="52" width="132" height="4" fill="#383038"/>
  <rect x="16" y="56" width="132" height="4" fill="#484048"/>
  <!-- Wheels -->
  <rect x="24" y="60" width="4" height="4" fill="#282028"/>
  <rect x="28" y="60" width="4" height="4" fill="#383038"/>
  <rect x="24" y="64" width="4" height="4" fill="#383038"/>
  <rect x="28" y="64" width="4" height="4" fill="#282028"/>
  <rect x="26" y="62" width="2" height="2" fill="#585058"/>
  <rect x="80" y="60" width="4" height="4" fill="#282028"/>
  <rect x="84" y="60" width="4" height="4" fill="#383038"/>
  <rect x="80" y="64" width="4" height="4" fill="#383038"/>
  <rect x="84" y="64" width="4" height="4" fill="#282028"/>
  <rect x="82" y="62" width="2" height="2" fill="#585058"/>
  <rect x="136" y="60" width="4" height="4" fill="#282028"/>
  <rect x="140" y="60" width="4" height="4" fill="#383038"/>
  <rect x="136" y="64" width="4" height="4" fill="#383038"/>
  <rect x="140" y="64" width="4" height="4" fill="#282028"/>
  <rect x="138" y="62" width="2" height="2" fill="#585058"/>
  <!-- Damage indicators - red flash marks -->
  <rect x="30" y="26" width="4" height="2" fill="#ff4040"/>
  <rect x="60" y="30" width="4" height="2" fill="#ff4040"/>
  <rect x="90" y="28" width="4" height="2" fill="#ff4040"/>
  <!-- Warning flash overlay -->
  <rect x="20" y="14" width="96" height="2" fill="#ff2020"/>
</svg>
