<svg xmlns="http://www.w3.org/2000/svg" width="176" height="96" viewBox="0 0 176 96" shape-rendering="crispEdges">
  <!-- Cart basket frame - back panel -->
  <rect x="20" y="16" width="4" height="4" fill="#d42e3e"/>
  <rect x="24" y="16" width="4" height="4" fill="#e83838"/>
  <rect x="28" y="16" width="80" height="4" fill="#cf1f2d"/>
  <rect x="108" y="16" width="4" height="4" fill="#e83838"/>
  <rect x="112" y="16" width="4" height="4" fill="#d42e3e"/>
  <!-- REWE red side panel -->
  <rect x="16" y="20" width="4" height="4" fill="#b81c1c"/>
  <rect x="20" y="20" width="4" height="4" fill="#cf1f2d"/>
  <rect x="24" y="20" width="88" height="4" fill="#e83838"/>
  <rect x="112" y="20" width="4" height="4" fill="#cf1f2d"/>
  <rect x="116" y="20" width="4" height="4" fill="#b81c1c"/>
  <!-- White REWE text area on cart -->
  <rect x="40" y="22" width="4" height="4" fill="#ffffff"/>
  <rect x="48" y="22" width="4" height="4" fill="#ffffff"/>
  <rect x="56" y="22" width="4" height="4" fill="#ffffff"/>
  <rect x="64" y="22" width="4" height="4" fill="#ffffff"/>
  <rect x="72" y="22" width="4" height="4" fill="#ffffff"/>
  <rect x="80" y="22" width="4" height="4" fill="#ffffff"/>
  <rect x="88" y="22" width="4" height="4" fill="#ffffff"/>
  <!-- Cart basket body -->
  <rect x="14" y="24" width="4" height="4" fill="#a8acb0"/>
  <rect x="18" y="24" width="4" height="4" fill="#c8ccd0"/>
  <rect x="22" y="24" width="4" height="4" fill="#e0e4e8"/>
  <rect x="26" y="24" width="80" height="4" fill="#e8ecf0"/>
  <rect x="106" y="24" width="4" height="4" fill="#d0d4d8"/>
  <rect x="110" y="24" width="4" height="4" fill="#c0c4c8"/>
  <rect x="114" y="24" width="4" height="4" fill="#a8acb0"/>
  <!-- Basket mesh rows -->
  <rect x="14" y="28" width="4" height="4" fill="#98a0a8"/>
  <rect x="18" y="28" width="4" height="4" fill="#b8c0c8"/>
  <rect x="22" y="28" width="88" height="4" fill="#d8dce0"/>
  <rect x="110" y="28" width="4" height="4" fill="#b0b8c0"/>
  <rect x="114" y="28" width="4" height="4" fill="#98a0a8"/>
  <!-- Wire mesh pattern -->
  <rect x="26" y="28" width="2" height="4" fill="#a0a8b0"/>
  <rect x="38" y="28" width="2" height="4" fill="#a0a8b0"/>
  <rect x="50" y="28" width="2" height="4" fill="#a0a8b0"/>
  <rect x="62" y="28" width="2" height="4" fill="#a0a8b0"/>
  <rect x="74" y="28" width="2" height="4" fill="#a0a8b0"/>
  <rect x="86" y="28" width="2" height="4" fill="#a0a8b0"/>
  <rect x="98" y="28" width="2" height="4" fill="#a0a8b0"/>
  <!-- Basket row 3 -->
  <rect x="14" y="32" width="4" height="4" fill="#90989e"/>
  <rect x="18" y="32" width="4" height="4" fill="#b0b8c0"/>
  <rect x="22" y="32" width="88" height="4" fill="#d0d4d8"/>
  <rect x="110" y="32" width="4" height="4" fill="#a8b0b8"/>
  <rect x="114" y="32" width="4" height="4" fill="#90989e"/>
  <!-- Horizontal wire -->
  <rect x="22" y="34" width="88" height="2" fill="#a0a8b0"/>
  <!-- Basket row 4 -->
  <rect x="14" y="36" width="4" height="4" fill="#888e98"/>
  <rect x="18" y="36" width="4" height="4" fill="#a8b0b8"/>
  <rect x="22" y="36" width="88" height="4" fill="#c8ccd0"/>
  <rect x="110" y="36" width="4" height="4" fill="#a0a8b0"/>
  <rect x="114" y="36" width="4" height="4" fill="#888e98"/>
  <!-- Wire mesh pattern row 2 -->
  <rect x="32" y="36" width="2" height="4" fill="#909898"/>
  <rect x="44" y="36" width="2" height="4" fill="#909898"/>
  <rect x="56" y="36" width="2" height="4" fill="#909898"/>
  <rect x="68" y="36" width="2" height="4" fill="#909898"/>
  <rect x="80" y="36" width="2" height="4" fill="#909898"/>
  <rect x="92" y="36" width="2" height="4" fill="#909898"/>
  <rect x="104" y="36" width="2" height="4" fill="#909898"/>
  <!-- Basket row 5 -->
  <rect x="16" y="40" width="4" height="4" fill="#808890"/>
  <rect x="20" y="40" width="4" height="4" fill="#a0a8b0"/>
  <rect x="24" y="40" width="84" height="4" fill="#c0c4c8"/>
  <rect x="108" y="40" width="4" height="4" fill="#98a0a8"/>
  <rect x="112" y="40" width="4" height="4" fill="#808890"/>
  <!-- Basket bottom -->
  <rect x="18" y="44" width="4" height="4" fill="#707880"/>
  <rect x="22" y="44" width="4" height="4" fill="#909898"/>
  <rect x="26" y="44" width="80" height="4" fill="#b0b8c0"/>
  <rect x="106" y="44" width="4" height="4" fill="#888e98"/>
  <rect x="110" y="44" width="4" height="4" fill="#707880"/>
  <!-- Bottom frame -->
  <rect x="20" y="48" width="92" height="4" fill="#606870"/>
  <!-- Handle bar -->
  <rect x="118" y="14" width="4" height="4" fill="#505860"/>
  <rect x="122" y="14" width="24" height="4" fill="#606870"/>
  <rect x="146" y="14" width="4" height="4" fill="#505860"/>
  <!-- Handle grip -->
  <rect x="126" y="10" width="16" height="4" fill="#404850"/>
  <rect x="128" y="8" width="12" height="4" fill="#303840"/>
  <!-- Handle vertical post -->
  <rect x="140" y="18" width="4" height="32" fill="#505860"/>
  <rect x="144" y="18" width="4" height="32" fill="#606870"/>
  <!-- Handle post shadow -->
  <rect x="148" y="22" width="2" height="28" fill="#404850"/>
  <!-- Front support bar -->
  <rect x="140" y="50" width="8" height="4" fill="#505860"/>
  <!-- Axle bar -->
  <rect x="16" y="52" width="132" height="4" fill="#404850"/>
  <rect x="16" y="56" width="132" height="4" fill="#505860"/>
  <!-- Front wheel assembly -->
  <rect x="120" y="58" width="4" height="4" fill="#505860"/>
  <rect x="124" y="60" width="4" height="4" fill="#404850"/>
  <!-- Wheels -->
  <rect x="24" y="60" width="4" height="4" fill="#303840"/>
  <rect x="28" y="60" width="4" height="4" fill="#404850"/>
  <rect x="24" y="64" width="4" height="4" fill="#404850"/>
  <rect x="28" y="64" width="4" height="4" fill="#303840"/>
  <rect x="26" y="62" width="2" height="2" fill="#606870"/>
  <rect x="80" y="60" width="4" height="4" fill="#303840"/>
  <rect x="84" y="60" width="4" height="4" fill="#404850"/>
  <rect x="80" y="64" width="4" height="4" fill="#404850"/>
  <rect x="84" y="64" width="4" height="4" fill="#303840"/>
  <rect x="82" y="62" width="2" height="2" fill="#606870"/>
  <!-- Rear wheel -->
  <rect x="136" y="60" width="4" height="4" fill="#303840"/>
  <rect x="140" y="60" width="4" height="4" fill="#404850"/>
  <rect x="136" y="64" width="4" height="4" fill="#404850"/>
  <rect x="140" y="64" width="4" height="4" fill="#303840"/>
  <rect x="138" y="62" width="2" height="2" fill="#606870"/>
  <!-- Yellow accent stripe -->
  <rect x="20" y="14" width="96" height="2" fill="#f0d040"/>
</svg>
