<svg xmlns="http://www.w3.org/2000/svg" width="48" height="48" viewBox="0 0 48 48" shape-rendering="crispEdges">
  <!-- Chip bag body -->
  <rect x="12" y="8" width="4" height="4" fill="#b82020"/>
  <rect x="16" y="8" width="4" height="4" fill="#d03030"/>
  <rect x="20" y="8" width="4" height="4" fill="#d83838"/>
  <rect x="24" y="8" width="4" height="4" fill="#d03030"/>
  <rect x="28" y="8" width="4" height="4" fill="#b82020"/>
  <rect x="32" y="8" width="4" height="4" fill="#a01818"/>
  <!-- Top crimp -->
  <rect x="14" y="6" width="4" height="4" fill="#a01818"/>
  <rect x="18" y="4" width="4" height="4" fill="#b82020"/>
  <rect x="22" y="4" width="4" height="4" fill="#c82828"/>
  <rect x="26" y="6" width="4" height="4" fill="#b82020"/>
  <rect x="30" y="6" width="4" height="4" fill="#a01818"/>
  <!-- Body rows -->
  <rect x="10" y="12" width="4" height="4" fill="#a01818"/>
  <rect x="14" y="12" width="4" height="4" fill="#c82828"/>
  <rect x="18" y="12" width="4" height="4" fill="#d83838"/>
  <rect x="22" y="12" width="4" height="4" fill="#e04040"/>
  <rect x="26" y="12" width="4" height="4" fill="#d83838"/>
  <rect x="30" y="12" width="4" height="4" fill="#c82828"/>
  <rect x="34" y="12" width="4" height="4" fill="#a01818"/>
  <!-- Yellow label area -->
  <rect x="10" y="16" width="4" height="4" fill="#a08010"/>
  <rect x="14" y="16" width="4" height="4" fill="#c8a020"/>
  <rect x="18" y="16" width="4" height="4" fill="#d8b030"/>
  <rect x="22" y="16" width="4" height="4" fill="#e0b838"/>
  <rect x="26" y="16" width="4" height="4" fill="#d8b030"/>
  <rect x="30" y="16" width="4" height="4" fill="#c8a020"/>
  <rect x="34" y="16" width="4" height="4" fill="#a08010"/>
  <rect x="10" y="20" width="4" height="4" fill="#907008"/>
  <rect x="14" y="20" width="4" height="4" fill="#b89018"/>
  <rect x="18" y="20" width="4" height="4" fill="#c8a020"/>
  <rect x="22" y="20" width="4" height="4" fill="#d8b030"/>
  <rect x="26" y="20" width="4" height="4" fill="#c8a020"/>
  <rect x="30" y="20" width="4" height="4" fill="#b89018"/>
  <rect x="34" y="20" width="4" height="4" fill="#907008"/>
  <!-- Lower body -->
  <rect x="10" y="24" width="4" height="4" fill="#a01818"/>
  <rect x="14" y="24" width="4" height="4" fill="#c82828"/>
  <rect x="18" y="24" width="4" height="4" fill="#d83838"/>
  <rect x="22" y="24" width="4" height="4" fill="#e04040"/>
  <rect x="26" y="24" width="4" height="4" fill="#d83838"/>
  <rect x="30" y="24" width="4" height="4" fill="#c82828"/>
  <rect x="34" y="24" width="4" height="4" fill="#a01818"/>
  <rect x="10" y="28" width="4" height="4" fill="#901010"/>
  <rect x="14" y="28" width="4" height="4" fill="#b82020"/>
  <rect x="18" y="28" width="4" height="4" fill="#c82828"/>
  <rect x="22" y="28" width="4" height="4" fill="#d03030"/>
  <rect x="26" y="28" width="4" height="4" fill="#c82828"/>
  <rect x="30" y="28" width="4" height="4" fill="#b82020"/>
  <rect x="34" y="28" width="4" height="4" fill="#901010"/>
  <!-- White expiry warning -->
  <rect x="12" y="32" width="4" height="4" fill="#ffffff"/>
  <rect x="16" y="32" width="4" height="4" fill="#ffffff"/>
  <rect x="20" y="32" width="4" height="4" fill="#ffffff"/>
  <rect x="24" y="32" width="4" height="4" fill="#ffffff"/>
  <rect x="28" y="32" width="4" height="4" fill="#ffffff"/>
  <rect x="32" y="32" width="4" height="4" fill="#ffffff"/>
  <!-- Red X on white -->
  <rect x="14" y="32" width="2" height="2" fill="#d03030"/>
  <rect x="16" y="34" width="2" height="2" fill="#d03030"/>
  <rect x="18" y="32" width="2" height="2" fill="#d03030"/>
  <rect x="26" y="32" width="2" height="2" fill="#d03030"/>
  <rect x="28" y="34" width="2" height="2" fill="#d03030"/>
  <rect x="30" y="32" width="2" height="2" fill="#d03030"/>
  <!-- Bottom -->
  <rect x="12" y="36" width="4" height="4" fill="#901010"/>
  <rect x="16" y="36" width="4" height="4" fill="#a01818"/>
  <rect x="20" y="36" width="4" height="4" fill="#b82020"/>
  <rect x="24" y="36" width="4" height="4" fill="#a01818"/>
  <rect x="28" y="36" width="4" height="4" fill="#901010"/>
  <rect x="32" y="36" width="4" height="4" fill="#800808"/>
</svg>
