<svg xmlns="http://www.w3.org/2000/svg" width="48" height="48" viewBox="0 0 48 48" shape-rendering="crispEdges">
  <!-- Crate lid top -->
  <rect x="8" y="8" width="4" height="4" fill="#8a5a30"/>
  <rect x="12" y="8" width="4" height="4" fill="#a06a38"/>
  <rect x="16" y="8" width="4" height="4" fill="#b07a40"/>
  <rect x="20" y="8" width="4" height="4" fill="#b88048"/>
  <rect x="24" y="8" width="4" height="4" fill="#b88048"/>
  <rect x="28" y="8" width="4" height="4" fill="#b07a40"/>
  <rect x="32" y="8" width="4" height="4" fill="#a06a38"/>
  <rect x="36" y="8" width="4" height="4" fill="#8a5a30"/>
  <!-- Lid front face -->
  <rect x="8" y="12" width="4" height="4" fill="#7a4e28"/>
  <rect x="12" y="12" width="4" height="4" fill="#9a6434"/>
  <rect x="16" y="12" width="4" height="4" fill="#a87040"/>
  <rect x="20" y="12" width="4" height="4" fill="#b07a40"/>
  <rect x="24" y="12" width="4" height="4" fill="#b07a40"/>
  <rect x="28" y="12" width="4" height="4" fill="#a87040"/>
  <rect x="32" y="12" width="4" height="4" fill="#9a6434"/>
  <rect x="36" y="12" width="4" height="4" fill="#7a4e28"/>
  <!-- Wood grain on lid -->
  <rect x="14" y="10" width="8" height="1" fill="#7a4e28" opacity="0.4"/>
  <rect x="26" y="10" width="8" height="1" fill="#7a4e28" opacity="0.4"/>
  <!-- Box body row 1 -->
  <rect x="6" y="16" width="4" height="4" fill="#9a6434"/>
  <rect x="10" y="16" width="4" height="4" fill="#b07a40"/>
  <rect x="14" y="16" width="4" height="4" fill="#c08848"/>
  <rect x="18" y="16" width="4" height="4" fill="#c89050"/>
  <rect x="22" y="16" width="4" height="4" fill="#c89050"/>
  <rect x="26" y="16" width="4" height="4" fill="#c89050"/>
  <rect x="30" y="16" width="4" height="4" fill="#c08848"/>
  <rect x="34" y="16" width="4" height="4" fill="#b07a40"/>
  <rect x="38" y="16" width="4" height="4" fill="#9a6434"/>
  <!-- Box body row 2 -->
  <rect x="6" y="20" width="4" height="4" fill="#8a5a30"/>
  <rect x="10" y="20" width="4" height="4" fill="#a06a38"/>
  <rect x="14" y="20" width="4" height="4" fill="#b07a40"/>
  <rect x="18" y="20" width="4" height="4" fill="#b88048"/>
  <rect x="22" y="20" width="4" height="4" fill="#b88048"/>
  <rect x="26" y="20" width="4" height="4" fill="#b88048"/>
  <rect x="30" y="20" width="4" height="4" fill="#b07a40"/>
  <rect x="34" y="20" width="4" height="4" fill="#a06a38"/>
  <rect x="38" y="20" width="4" height="4" fill="#8a5a30"/>
  <!-- White label area -->
  <rect x="12" y="22" width="4" height="4" fill="#fff8e8"/>
  <rect x="16" y="22" width="4" height="4" fill="#fffff0"/>
  <rect x="20" y="22" width="4" height="4" fill="#fffff0"/>
  <rect x="24" y="22" width="4" height="4" fill="#fffff0"/>
  <rect x="28" y="22" width="4" height="4" fill="#fffff0"/>
  <rect x="32" y="22" width="4" height="4" fill="#fff8e8"/>
  <!-- REWE red stripe on label -->
  <rect x="14" y="24" width="4" height="2" fill="#cf1f2d"/>
  <rect x="18" y="24" width="4" height="2" fill="#e83838"/>
  <rect x="22" y="24" width="4" height="2" fill="#e83838"/>
  <rect x="26" y="24" width="4" height="2" fill="#e83838"/>
  <rect x="30" y="24" width="4" height="2" fill="#cf1f2d"/>
  <!-- "Frische" text placeholder (small white dots) -->
  <rect x="16" y="26" width="2" height="2" fill="#cf1f2d"/>
  <rect x="20" y="26" width="2" height="2" fill="#cf1f2d"/>
  <rect x="24" y="26" width="2" height="2" fill="#cf1f2d"/>
  <rect x="28" y="26" width="2" height="2" fill="#cf1f2d"/>
  <!-- Box body row 3 -->
  <rect x="6" y="28" width="4" height="4" fill="#7a4e28"/>
  <rect x="10" y="28" width="4" height="4" fill="#9a6434"/>
  <rect x="14" y="28" width="4" height="4" fill="#a87040"/>
  <rect x="18" y="28" width="4" height="4" fill="#b07a40"/>
  <rect x="22" y="28" width="4" height="4" fill="#b07a40"/>
  <rect x="26" y="28" width="4" height="4" fill="#b07a40"/>
  <rect x="30" y="28" width="4" height="4" fill="#a87040"/>
  <rect x="34" y="28" width="4" height="4" fill="#9a6434"/>
  <rect x="38" y="28" width="4" height="4" fill="#7a4e28"/>
  <!-- Box body row 4 -->
  <rect x="6" y="32" width="4" height="4" fill="#6a4420"/>
  <rect x="10" y="32" width="4" height="4" fill="#8a5a30"/>
  <rect x="14" y="32" width="4" height="4" fill="#9a6434"/>
  <rect x="18" y="32" width="4" height="4" fill="#a06a38"/>
  <rect x="22" y="32" width="4" height="4" fill="#a06a38"/>
  <rect x="26" y="32" width="4" height="4" fill="#a06a38"/>
  <rect x="30" y="32" width="4" height="4" fill="#9a6434"/>
  <rect x="34" y="32" width="4" height="4" fill="#8a5a30"/>
  <rect x="38" y="32" width="4" height="4" fill="#6a4420"/>
  <!-- Box bottom -->
  <rect x="8" y="36" width="4" height="4" fill="#5c3a18"/>
  <rect x="12" y="36" width="4" height="4" fill="#7a4e28"/>
  <rect x="16" y="36" width="4" height="4" fill="#8a5a30"/>
  <rect x="20" y="36" width="4" height="4" fill="#9a6434"/>
  <rect x="24" y="36" width="4" height="4" fill="#9a6434"/>
  <rect x="28" y="36" width="4" height="4" fill="#8a5a30"/>
  <rect x="32" y="36" width="4" height="4" fill="#7a4e28"/>
  <rect x="36" y="36" width="4" height="4" fill="#5c3a18"/>
  <!-- Wood plank lines -->
  <rect x="6" y="19" width="36" height="1" fill="#6a4420" opacity="0.4"/>
  <rect x="6" y="31" width="36" height="1" fill="#5c3a18" opacity="0.4"/>
  <!-- Corner metal brackets -->
  <rect x="6" y="16" width="2" height="2" fill="#808890"/>
  <rect x="40" y="16" width="2" height="2" fill="#808890"/>
  <rect x="6" y="36" width="2" height="2" fill="#707880"/>
  <rect x="40" y="36" width="2" height="2" fill="#707880"/>
  <!-- Highlight -->
  <rect x="14" y="16" width="2" height="2" fill="#d8a058"/>
  <rect x="18" y="16" width="2" height="2" fill="#d8a860"/>
</svg>
