<svg xmlns="http://www.w3.org/2000/svg" width="48" height="48" viewBox="0 0 48 48" shape-rendering="crispEdges">
  <!-- Bag top fold/seal -->
  <rect x="12" y="6" width="4" height="4" fill="#4090b8"/>
  <rect x="16" y="6" width="4" height="4" fill="#50a8d0"/>
  <rect x="20" y="6" width="4" height="4" fill="#60b8e0"/>
  <rect x="24" y="6" width="4" height="4" fill="#60b8e0"/>
  <rect x="28" y="6" width="4" height="4" fill="#50a8d0"/>
  <rect x="32" y="6" width="4" height="4" fill="#4090b8"/>
  <!-- Zip seal line -->
  <rect x="12" y="10" width="24" height="2" fill="#3080a8"/>
  <!-- Main bag body row 1 -->
  <rect x="10" y="12" width="4" height="4" fill="#50a8d0"/>
  <rect x="14" y="12" width="4" height="4" fill="#70c8e8"/>
  <rect x="18" y="12" width="4" height="4" fill="#88d8f0"/>
  <rect x="22" y="12" width="4" height="4" fill="#98e0f8"/>
  <rect x="26" y="12" width="4" height="4" fill="#88d8f0"/>
  <rect x="30" y="12" width="4" height="4" fill="#70c8e8"/>
  <rect x="34" y="12" width="4" height="4" fill="#50a8d0"/>
  <!-- Row 2 -->
  <rect x="10" y="16" width="4" height="4" fill="#4898c0"/>
  <rect x="14" y="16" width="4" height="4" fill="#60b8e0"/>
  <rect x="18" y="16" width="4" height="4" fill="#78d0f0"/>
  <rect x="22" y="16" width="4" height="4" fill="#90d8f4"/>
  <rect x="26" y="16" width="4" height="4" fill="#78d0f0"/>
  <rect x="30" y="16" width="4" height="4" fill="#60b8e0"/>
  <rect x="34" y="16" width="4" height="4" fill="#4898c0"/>
  <!-- Row 3 -->
  <rect x="10" y="20" width="4" height="4" fill="#4090b8"/>
  <rect x="14" y="20" width="4" height="4" fill="#50a8d0"/>
  <rect x="18" y="20" width="4" height="4" fill="#70c8e8"/>
  <rect x="22" y="20" width="4" height="4" fill="#88d8f0"/>
  <rect x="26" y="20" width="4" height="4" fill="#70c8e8"/>
  <rect x="30" y="20" width="4" height="4" fill="#50a8d0"/>
  <rect x="34" y="20" width="4" height="4" fill="#4090b8"/>
  <!-- Snowflake/ice crystal icon center -->
  <rect x="22" y="18" width="4" height="4" fill="#ffffff"/>
  <rect x="18" y="22" width="4" height="4" fill="#ffffff"/>
  <rect x="22" y="22" width="4" height="4" fill="#e0f8ff"/>
  <rect x="26" y="22" width="4" height="4" fill="#ffffff"/>
  <rect x="22" y="26" width="4" height="4" fill="#ffffff"/>
  <!-- Snowflake arms -->
  <rect x="16" y="18" width="2" height="2" fill="#d0f0ff"/>
  <rect x="28" y="18" width="2" height="2" fill="#d0f0ff"/>
  <rect x="16" y="26" width="2" height="2" fill="#d0f0ff"/>
  <rect x="28" y="26" width="2" height="2" fill="#d0f0ff"/>
  <!-- Row 4 -->
  <rect x="10" y="24" width="4" height="4" fill="#3888b0"/>
  <rect x="14" y="24" width="4" height="4" fill="#4898c0"/>
  <rect x="18" y="24" width="4" height="4" fill="#60b8e0"/>
  <rect x="22" y="24" width="4" height="4" fill="#78d0f0"/>
  <rect x="26" y="24" width="4" height="4" fill="#60b8e0"/>
  <rect x="30" y="24" width="4" height="4" fill="#4898c0"/>
  <rect x="34" y="24" width="4" height="4" fill="#3888b0"/>
  <!-- Row 5 -->
  <rect x="10" y="28" width="4" height="4" fill="#3080a8"/>
  <rect x="14" y="28" width="4" height="4" fill="#4090b8"/>
  <rect x="18" y="28" width="4" height="4" fill="#50a8d0"/>
  <rect x="22" y="28" width="4" height="4" fill="#60b8e0"/>
  <rect x="26" y="28" width="4" height="4" fill="#50a8d0"/>
  <rect x="30" y="28" width="4" height="4" fill="#4090b8"/>
  <rect x="34" y="28" width="4" height="4" fill="#3080a8"/>
  <!-- Row 6 -->
  <rect x="10" y="32" width="4" height="4" fill="#2878a0"/>
  <rect x="14" y="32" width="4" height="4" fill="#3888b0"/>
  <rect x="18" y="32" width="4" height="4" fill="#4898c0"/>
  <rect x="22" y="32" width="4" height="4" fill="#50a8d0"/>
  <rect x="26" y="32" width="4" height="4" fill="#4898c0"/>
  <rect x="30" y="32" width="4" height="4" fill="#3888b0"/>
  <rect x="34" y="32" width="4" height="4" fill="#2878a0"/>
  <!-- Bottom -->
  <rect x="12" y="36" width="4" height="4" fill="#2878a0"/>
  <rect x="16" y="36" width="4" height="4" fill="#3080a8"/>
  <rect x="20" y="36" width="4" height="4" fill="#4090b8"/>
  <rect x="24" y="36" width="4" height="4" fill="#4090b8"/>
  <rect x="28" y="36" width="4" height="4" fill="#3080a8"/>
  <rect x="32" y="36" width="4" height="4" fill="#2878a0"/>
  <!-- Bottom edge -->
  <rect x="14" y="40" width="4" height="2" fill="#206898"/>
  <rect x="18" y="40" width="4" height="2" fill="#2878a0"/>
  <rect x="22" y="40" width="4" height="2" fill="#2878a0"/>
  <rect x="26" y="40" width="4" height="2" fill="#2878a0"/>
  <rect x="30" y="40" width="4" height="2" fill="#206898"/>
  <!-- Frost sparkles -->
  <rect x="14" y="14" width="2" height="2" fill="#d0f8ff"/>
  <rect x="32" y="18" width="2" height="2" fill="#d0f8ff"/>
  <rect x="12" y="30" width="2" height="2" fill="#b8e8f8"/>
  <rect x="34" y="30" width="2" height="2" fill="#b8e8f8"/>
</svg>
