<svg xmlns="http://www.w3.org/2000/svg" width="48" height="48" viewBox="0 0 48 48" shape-rendering="crispEdges">
  <!-- Stem -->
  <rect x="22" y="4" width="4" height="4" fill="#5c3a1e"/>
  <rect x="24" y="6" width="4" height="4" fill="#7a4e2a"/>
  <!-- Leaf -->
  <rect x="26" y="4" width="4" height="4" fill="#5d9e3a"/>
  <rect x="28" y="6" width="4" height="4" fill="#6db845"/>
  <rect x="30" y="4" width="4" height="4" fill="#4a7a2e"/>
  <!-- Top indent -->
  <rect x="18" y="10" width="4" height="4" fill="#c8a020"/>
  <rect x="22" y="8" width="4" height="4" fill="#907010"/>
  <rect x="26" y="10" width="4" height="4" fill="#c8a020"/>
  <!-- Main body row 1 -->
  <rect x="14" y="12" width="4" height="4" fill="#d8b030"/>
  <rect x="18" y="12" width="4" height="4" fill="#e8c840"/>
  <rect x="22" y="12" width="4" height="4" fill="#f0d850"/>
  <rect x="26" y="12" width="4" height="4" fill="#e8c840"/>
  <rect x="30" y="12" width="4" height="4" fill="#d8b030"/>
  <!-- Main body row 2 -->
  <rect x="12" y="16" width="4" height="4" fill="#c8a020"/>
  <rect x="16" y="16" width="4" height="4" fill="#e8c840"/>
  <rect x="20" y="16" width="4" height="4" fill="#f8e860"/>
  <rect x="24" y="16" width="4" height="4" fill="#f0d850"/>
  <rect x="28" y="16" width="4" height="4" fill="#e8c840"/>
  <rect x="32" y="16" width="4" height="4" fill="#c8a020"/>
  <!-- Main body row 3 -->
  <rect x="10" y="20" width="4" height="4" fill="#b89018"/>
  <rect x="14" y="20" width="4" height="4" fill="#d8b030"/>
  <rect x="18" y="20" width="4" height="4" fill="#f0d850"/>
  <rect x="22" y="20" width="4" height="4" fill="#f8e860"/>
  <rect x="26" y="20" width="4" height="4" fill="#f0d850"/>
  <rect x="30" y="20" width="4" height="4" fill="#d8b030"/>
  <rect x="34" y="20" width="4" height="4" fill="#b89018"/>
  <!-- Main body row 4 -->
  <rect x="10" y="24" width="4" height="4" fill="#a08010"/>
  <rect x="14" y="24" width="4" height="4" fill="#c8a020"/>
  <rect x="18" y="24" width="4" height="4" fill="#e8c840"/>
  <rect x="22" y="24" width="4" height="4" fill="#f0d850"/>
  <rect x="26" y="24" width="4" height="4" fill="#e8c840"/>
  <rect x="30" y="24" width="4" height="4" fill="#c8a020"/>
  <rect x="34" y="24" width="4" height="4" fill="#a08010"/>
  <!-- Main body row 5 -->
  <rect x="10" y="28" width="4" height="4" fill="#907010"/>
  <rect x="14" y="28" width="4" height="4" fill="#b89018"/>
  <rect x="18" y="28" width="4" height="4" fill="#d8b030"/>
  <rect x="22" y="28" width="4" height="4" fill="#e8c840"/>
  <rect x="26" y="28" width="4" height="4" fill="#d8b030"/>
  <rect x="30" y="28" width="4" height="4" fill="#b89018"/>
  <rect x="34" y="28" width="4" height="4" fill="#907010"/>
  <!-- Bottom rows -->
  <rect x="12" y="32" width="4" height="4" fill="#a08010"/>
  <rect x="16" y="32" width="4" height="4" fill="#c8a020"/>
  <rect x="20" y="32" width="4" height="4" fill="#d8b030"/>
  <rect x="24" y="32" width="4" height="4" fill="#d8b030"/>
  <rect x="28" y="32" width="4" height="4" fill="#c8a020"/>
  <rect x="32" y="32" width="4" height="4" fill="#a08010"/>
  <rect x="14" y="36" width="4" height="4" fill="#907010"/>
  <rect x="18" y="36" width="4" height="4" fill="#b89018"/>
  <rect x="22" y="36" width="4" height="4" fill="#c8a020"/>
  <rect x="26" y="36" width="4" height="4" fill="#b89018"/>
  <rect x="30" y="36" width="4" height="4" fill="#907010"/>
  <rect x="18" y="40" width="4" height="4" fill="#907010"/>
  <rect x="22" y="40" width="4" height="4" fill="#a08010"/>
  <rect x="26" y="40" width="4" height="4" fill="#907010"/>
  <!-- Sparkle highlights -->
  <rect x="16" y="16" width="2" height="2" fill="#fffff0"/>
  <rect x="18" y="18" width="2" height="2" fill="#fff8c0"/>
  <rect x="16" y="20" width="2" height="2" fill="#fffff0"/>
  <!-- Sparkle stars -->
  <rect x="6" y="10" width="2" height="2" fill="#fff8c0"/>
  <rect x="8" y="8" width="2" height="2" fill="#fff8c0"/>
  <rect x="36" y="12" width="2" height="2" fill="#fff8c0"/>
  <rect x="38" y="10" width="2" height="2" fill="#fff8c0"/>
  <rect x="8" y="36" width="2" height="2" fill="#fff8c0"/>
  <rect x="38" y="34" width="2" height="2" fill="#fff8c0"/>
</svg>
